# AST/ASF file generated using VICON BodyLanguage
# -----------------------------------------------
:version 1.10
:name VICON
:units
  mass 1.0
  length 0.45
  angle deg
:documentation
   .ast/.asf automatically generated from VICON data using
   VICON BodyBuilder and BodyLanguage model FoxedUp or BRILLIANT.MOD
:root
   order TX TY TZ RX RY RZ
   axis XYZ
   position 0 0 0  
   orientation 0 0 0 
:bonedata
  begin
     id 1 
     name lhipjoint
     direction 0.612567 -0.751349 0.245431 
     length 2.42285 
     axis 0 0 0  XYZ
  end
  begin
     id 2 
     name lfemur
     direction 0.34202 -0.939693 0  
     length 7.11304  
     axis 0 0 20  XYZ
    dof rx ry rz
    limits (-160.0 20.0)
           (-70.0 70.0)
           (-60.0 70.0)
  end
  begin
     id 3 
     name ltibia
     direction 0.34202 -0.939693 0   
     length 7.84529   
     axis 0 0 20   XYZ
    dof rx
    limits (-10.0 170.0)
  end
  begin
     id 4 
     name lfoot
     direction 0.0779239 -0.214094 0.9737   
     length 1.97176   
     axis -90 7.62852e-016 20   XYZ
    dof rx rz
    limits (-45.0 90.0)
           (-70.0 20.0)
  end
  begin
     id 5 
     name ltoes
     direction 1.53565e-011 -4.21709e-011 1   
     length 0.993197   
     axis -90 7.62852e-016 20   XYZ
    dof rx
    limits (-90.0 20.0)
  end
  begin
     id 6 
     name rhipjoint
     direction -0.665722 -0.709315 0.231701   
     length 2.56642  
     axis 0 0 0  XYZ 
  end
  begin
     id 7 
     name rfemur
     direction -0.34202 -0.939693 0   
     length 7.32108   
     axis 0 0 -20   XYZ
    dof rx ry rz
    limits (-160.0 20.0)
           (-70.0 70.0)
           (-70.0 60.0)
  end
  begin
     id 8 
     name rtibia
     direction -0.34202 -0.939693 0   
     length 7.81254   
     axis 0 0 -20   XYZ
    dof rx
    limits (-10.0 170.0)
 end
 begin
     id 9 
     name rfoot
     direction -0.0832806 -0.228812 0.969902   
     length 2.08278  
     axis -90 -7.62852e-016 -20   XYZ
    dof rx rz
    limits (-45.0 90.0)
           (-20.0 70.0)
  end
  begin
     id 10 
     name rtoes
     direction -1.53589e-011 -4.22086e-011 1   
     length 1.04609   
     axis -90 -7.62852e-016 -20   XYZ
    dof rx
    limits (-90.0 20.0)
  end
  begin
     id 11 
     name lowerback
     direction -0.00506013 0.988403 -0.151766   
     length 2.01978   
     axis 0 0 0   XYZ
    dof rx ry rz
    limits (-20.0 45.0)
           (-30.0 30.0)
           (-30.0 30.0)
  end
  begin
     id 12 
     name upperback
     direction -0.00836389 0.99968 0.0238859   
     length 2.01276   
     axis 0 0 0   XYZ
    dof rx ry rz
    limits (-20.0 45.0)
           (-30.0 30.0)
           (-30.0 30.0)
  end
  begin
     id 13 
     name thorax
     direction -0.00684136 0.995386 0.0957043   
     length 2.07303   
     axis 0 0 0   XYZ
    dof rx ry rz
    limits (-20.0 45.0)
           (-30.0 30.0)
           (-30.0 30.0)
  end
  begin
     id 14 
     name lowerneck
     direction -0.0161045 0.999661 0.0204485   
     length 1.91243   
     axis 0 0 0   XYZ
    dof rx ry rz
    limits (-20.0 45.0)
           (-30.0 30.0)
           (-30.0 30.0)
  end
  begin
     id 15 
     name upperneck
     direction 0.0553583 0.990946 -0.122319   
     length 1.91574   
     axis 0 0 0   XYZ
    dof rx ry rz
    limits (-20.0 45.0)
           (-30.0 30.0)
           (-30.0 30.0)
  end
  begin
     id 16
     name head
     direction 0.0180273 0.998839 -0.0446756  
     length 1.92693  
     axis 0 0 0   XYZ
    dof rx ry rz
    limits (-20.0 45.0)
           (-30.0 30.0)
           (-30.0 30.0)
  end
  begin
     id 17 
     name lclavicle
     direction 0.945646 0.319323 -0.0615358  
     length 4.0076  
     axis 0 0 0   XYZ
    dof ry rz
    limits (-20.0 10.0)
           (0.0 20.0)
  end
  begin
     id 18 
     name lhumerus
     direction 1 -4.48967e-011 -2.79996e-027   
     length 5.64147   
     axis 180 -30 -90   XYZ
    dof rx ry rz
    limits (-60.0 90.0)
           (-90.0 90.0)
           (-90.0 90.0)
  end
  begin
     id 19
     name lradius
     direction 1 -4.48976e-011 -9.5122e-027   
     length 2.86444   
     axis 180 -30 -90   XYZ
    dof rx
    limits (-10.0 170.0)
  end
  begin
     id 20
     name lwrist
     direction 1 -4.48983e-011 -1.24047e-026   
     length 1.43222   
     axis 9.05591e-015 90 90   XYZ
    dof ry
    limits (-180.0 0.0)
 end
  begin
     id 21 
     name lhand
     direction 1 -4.4892e-011 -2.48094e-026   
     length 0.722123   
     axis 1.58305e-014 90 90   XYZ
    dof rx rz
    limits (-90.0 90.0)
           (-45.0 45.0)
  end
  begin
     id 22 
     name lfingers
     direction 1 -4.48895e-011 -4.96187e-026   
     length 0.582194   
     axis 3.1661e-014 90 90   XYZ
    dof rx
    limits (0.0 90.0)
  end
  begin
     id 23
     name lthumb
     direction 0.707107 -6.34961e-011 0.707107   
     length 0.835918   
     axis -90 45 2.85299e-015   XYZ
    dof rx rz
    limits (-45.0 45.0)
           (-45.0 45.0)
  end
  begin
     id 24 
     name rclavicle
     direction -0.932635 0.324218 -0.15835   
     length 3.65819  
     axis 0 0 0   XYZ 
    dof ry rz
    limits (-10.0 20.0)
           (-20.0 0.0)
  end
  begin
     id 25 
     name rhumerus
     direction -1 -4.48965e-011 -4.02296e-027  
     length 5.44729   
     axis 180 30 90   XYZ
    dof rx ry rz
    limits (-90.0 60.0)
           (-90.0 90.0)
           (-90.0 90.0)
  end
  begin
     id 26 
     name rradius
     direction -1 -4.48957e-011 -8.81087e-027   
     length 3.08821   
     axis 180 30 90   XYZ
    dof rx
    limits (-10.0 170.0)
  end
  begin
     id 27 
     name rwrist
     direction -1 -4.49015e-011 -1.24047e-026   
     length 1.5441   
     axis 9.05591e-015 -90 -90   XYZ
    dof ry
    limits (-180.0 0.0)
  end
  begin
     id 28
     name rhand
     direction -1 -4.4891e-011 -2.48094e-026   
     length 0.821049   
     axis 1.58305e-014 -90 -90   XYZ
    dof rx rz
    limits (-90.0 90.0)
           (-45.0 45.0)
  end
  begin
     id 29
     name rfingers
     direction -1 -4.48985e-011 -4.96187e-026   
     length 0.661951   
     axis 3.1661e-014 -90 -90   XYZ
    dof rx
    limits (0.0 90.0)
  end
  begin
     id 30
     name rthumb
     direction -0.707107 -6.34906e-011 0.707107   
     length 0.950433   
     axis -90 -45 -2.85299e-015   XYZ
    dof rx rz
    limits (-45.0 45.0)
           (-45.0 45.0)
  end
:hierarchy
  begin
    root lhipjoint rhipjoint lowerback
    lhipjoint lfemur
    lfemur ltibia
    ltibia lfoot
    lfoot ltoes
    rhipjoint rfemur
    rfemur rtibia
    rtibia rfoot
    rfoot rtoes
    lowerback upperback
    upperback thorax
    thorax lowerneck lclavicle rclavicle
    lowerneck upperneck
    upperneck head
    lclavicle lhumerus
    lhumerus lradius
    lradius lwrist
    lwrist lhand lthumb
    lhand lfingers
    rclavicle rhumerus
    rhumerus rradius
    rradius rwrist
    rwrist rhand rthumb
    rhand rfingers
  end

#!OML:ASF F:\VICON\USERDATA\INSTALL\rory3\rory3.ASF
:FULLY-SPECIFIED
:DEGREES
61
root 1.63058 17.9897 0.127488 -123.973 88.2318 -125.189
lowerback 9.78923 -0.7852 3.25305
upperback -0.677741 -0.551406 1.39336
thorax -6.23128 -0.344258 -0.289219
lowerneck 10.607 -2.30366 -4.19608
upperneck -11.0433 -3.03452 5.55681
head -4.89689 -1.67106 2.62955
rclavicle 1.32937e-014 -3.18055e-015
rhumerus 2.92375 21.6292 -90.2925
rradius 133.748
rwrist 23.5454
rhand 33.8543 2.06132
rfingers 7.12502
rthumb 57.1347 -14.4119
lclavicle 1.32937e-014 -3.18055e-015
lhumerus 9.54641 -32.4807 88.1645
lradius 129.147
lwrist 21.6587
lhand -16.1128 27.8958
lfingers 7.12502
lthumb 10.0913 57.6338
rfemur -6.89807 0.392757 21.242
rtibia 13.9749
rfoot -12.1633 -6.22873
rtoes -20.8794
lfemur -8.48541 1.58386 -17.0008
ltibia 17.7727
lfoot -12.4379 4.25974
ltoes -19.5712
62
root 1.62251 17.9885 0.130184 -119.982 88.0922 -121.109
lowerback 9.81103 -0.806029 3.3615
upperback -0.625455 -0.557453 1.50222
thorax -6.18892 -0.346834 -0.235547
lowerneck 10.6842 -2.2362 -4.35761
upperneck -11.1073 -2.95692 5.65809
head -4.92925 -1.6338 2.68491
rclavicle -3.05631e-015 -3.06128e-014
rhumerus 2.92531 21.8158 -90.2461
rradius 133.676
rwrist 23.6676
rhand 33.6869 1.91172
rfingers 7.12502
rthumb 56.9876 -14.6846
lclavicle -3.05631e-015 -3.06128e-014
lhumerus 9.53738 -32.382 88.166
lradius 129.165
lwrist 21.6623
lhand -16.0235 27.9189
lfingers 7.12502
lthumb 10.1775 57.6527
rfemur -6.78305 0.464681 21.4659
rtibia 13.8792
rfoot -12.0766 -6.32817
rtoes -21.7179
lfemur -8.50575 1.48498 -16.7608
ltibia 17.9418
lfoot -12.5702 4.22873
ltoes -18.7024
63
root 1.61532 17.9866 0.133134 -117.033 88.0221 -118.083
lowerback 9.82795 -0.802205 3.38354
upperback -0.566053 -0.542406 1.60027
thorax -6.13469 -0.336361 -0.148021
lowerneck 10.7289 -2.22531 -4.49058
upperneck -11.1929 -2.96136 5.66888
head -4.9606 -1.63149 2.71264
rclavicle -1.51573e-015 1.35174e-014
rhumerus 2.93779 21.8972 -90.1391
rradius 133.661
rwrist 23.5705
rhand 33.6406 1.75623
rfingers 7.12502
rthumb 56.9469 -14.874
lclavicle -1.51573e-015 1.35174e-014
lhumerus 9.56108 -32.3396 88.1991
lradius 129.013
lwrist 21.4463
lhand -16.0526 27.6172
lfingers 7.12502
lthumb 10.1494 57.3524
rfemur -6.65862 0.547993 21.6019
rtibia 13.7457
rfoot -12.0216 -6.3624
rtoes -22.2903
lfemur -8.54983 1.54524 -16.6305
ltibia 18.1438
lfoot -12.657 4.27111
ltoes -19.2143
64
root 1.60658 17.984 0.13594 -115.623 87.9333 -116.623
lowerback 9.84514 -0.793859 3.41645
upperback -0.549434 -0.522577 1.65351
thorax -6.12626 -0.326014 -0.113722
lowerneck 10.8889 -2.23787 -4.46669
upperneck -11.3157 -2.97997 5.64268
head -5.0253 -1.64153 2.70705
rclavicle 6.95746e-016 -1.59028e-015
rhumerus 2.83695 21.8712 -90.1105
rradius 133.718
rwrist 23.4277
rhand 33.6531 1.6771
rfingers 7.12502
rthumb 56.9578 -14.944
lclavicle 6.95746e-016 -1.59028e-015
lhumerus 9.46251 -32.3829 88.2351
lradius 128.938
lwrist 21.3496
lhand -16.1113 27.4569
lfingers 7.12502
lthumb 10.0928 57.1948
rfemur -6.61702 0.573367 21.7335
rtibia 13.6994
rfoot -11.943 -6.45398
rtoes -22.7906
lfemur -8.61875 1.57773 -16.5008
ltibia 18.3042
lfoot -12.6924 4.2361
ltoes -19.4221
65
root 1.60087 17.9825 0.136623 -114.853 87.9046 -115.765
lowerback 9.85122 -0.784534 3.37979
upperback -0.502959 -0.510856 1.71031
thorax -6.07938 -0.316643 -0.0359332
lowerneck 10.9932 -2.22777 -4.48838
upperneck -11.388 -2.97234 5.63746
head -5.06538 -1.63765 2.71172
rclavicle 1.73937e-016 6.75868e-015
rhumerus 2.73476 21.8164 -90.0883
rradius 133.739
rwrist 23.4078
rhand 33.652 1.84554
rfingers 7.12502
rthumb 56.9568 -14.7764
lclavicle 1.73937e-016 6.75868e-015
lhumerus 9.34964 -32.3481 88.3342
lradius 128.895
lwrist 21.3813
lhand -16.1482 27.3464
lfingers 7.12502
lthumb 10.0572 57.0861
rfemur -6.54928 0.613163 21.7771
rtibia 13.7057
rfoot -11.9495 -6.47285
rtoes -22.4449
lfemur -8.6107 1.59595 -16.4553
ltibia 18.4362
lfoot -12.7024 4.22476
ltoes -19.4058
66
root 1.59298 17.9811 0.135762 -115.954 87.9641 -116.78
lowerback 9.91053 -0.783974 3.27272
upperback -0.471739 -0.520062 1.7192
thorax -6.07889 -0.317239 0.0352457
lowerneck 11.1203 -2.18703 -4.5307
upperneck -11.4726 -2.92117 5.67651
head -5.11437 -1.61476 2.73126
rclavicle -2.28602e-015 1.90833e-014
rhumerus 2.63184 21.6974 -90.0571
rradius 133.776
rwrist 23.342
rhand 33.7961 2.00417
rfingers 7.12502
rthumb 57.0836 -14.512
lclavicle -2.28602e-015 1.90833e-014
lhumerus 9.2269 -32.3385 88.4072
lradius 128.88
lwrist 21.4045
lhand -16.1518 27.2972
lfingers 7.12502
lthumb 10.0537 57.037
rfemur -6.5022 0.589562 21.6915
rtibia 13.7403
rfoot -11.9698 -6.39901
rtoes -22.3617
lfemur -8.59768 1.63014 -16.5391
ltibia 18.5397
lfoot -12.7078 4.17316
ltoes -19.2422
67
root 1.5847 17.979 0.13591 -115.547 87.934 -116.287
lowerback 9.97603 -0.784364 3.26653
upperback -0.44141 -0.517267 1.73634
thorax -6.08365 -0.31483 0.0567083
lowerneck 11.3245 -2.16164 -4.50854
upperneck -11.6254 -2.88249 5.69965
head -5.1982 -1.60042 2.73883
rclavicle 9.54166e-015 -9.93923e-015
rhumerus 2.49052 21.5397 -90.0445
rradius 133.854
rwrist 23.207
rhand 33.8562 1.97586
rfingers 7.12502
rthumb 57.1364 -14.496
lclavicle 9.54166e-015 -9.93923e-015
lhumerus 9.13162 -32.3532 88.4147
lradius 128.858
lwrist 21.3862
lhand -16.0598 27.3227
lfingers 7.12502
lthumb 10.1425 57.0582
rfemur -6.46449 0.604134 21.7279
rtibia 13.788
rfoot -11.9973 -6.33608
rtoes -22.2584
lfemur -8.57611 1.6182 -16.5014
ltibia 18.6158
lfoot -12.7396 4.23179
ltoes -19.6479
68
root 1.58186 17.9768 0.134925 -116.484 87.9091 -117.15
lowerback 9.9512 -0.790209 3.22111
upperback -0.397307 -0.532131 1.74436
thorax -6.02276 -0.319435 0.091943
lowerneck 11.578 -2.15248 -4.37782
upperneck -11.8269 -2.85916 5.63372
head -5.30797 -1.59262 2.70356
rclavicle 9.29318e-015 -1.59028e-015
rhumerus 2.31275 21.4004 -90.0761
rradius 133.915
rwrist 23.2851
rhand 33.8142 1.9729
rfingers 7.12502
rthumb 57.0995 -14.5299
lclavicle 9.29318e-015 -1.59028e-015
lhumerus 9.11567 -32.4343 88.3365
lradius 128.92
lwrist 21.4616
lhand -16.014 27.603
lfingers 7.12502
lthumb 10.1866 57.3364
rfemur -6.40299 0.581091 21.7315
rtibia 13.8315
rfoot -12.07 -6.32877
rtoes -22.2574
lfemur -8.54256 1.54076 -16.4976
ltibia 18.6943
lfoot -12.7729 4.26045
ltoes -19.6208
69
root 1.57974 17.975 0.134724 -117.634 87.8809 -118.244
lowerback 9.85168 -0.798466 3.19295
upperback -0.323749 -0.552711 1.74845
thorax -5.88892 -0.326499 0.112757
lowerneck 11.7204 -2.14141 -4.33109
upperneck -11.9267 -2.83584 5.64677
head -5.36484 -1.58568 2.70284
rclavicle -6.90777e-015 1.27222e-014
rhumerus 2.19397 21.2507 -90.0966
rradius 133.945
rwrist 23.3317
rhand 33.7624 1.92899
rfingers 7.12502
rthumb 57.054 -14.612
lclavicle -6.90777e-015 1.27222e-014
lhumerus 9.22728 -32.4806 88.2301
lradius 128.97
lwrist 21.5437
lhand -15.8534 27.8404
lfingers 7.12502
lthumb 10.3416 57.5661
rfemur -6.3664 0.557961 21.741
rtibia 13.8825
rfoot -12.1203 -6.369
rtoes -22.3909
lfemur -8.52756 1.50287 -16.4914
ltibia 18.7581
lfoot -12.8042 4.21952
ltoes -19.6731
70
root 1.57321 17.9732 0.137005 -118.62 87.8173 -119.179
lowerback 9.79713 -0.803321 3.18161
upperback -0.238556 -0.563258 1.77023
thorax -5.76816 -0.328649 0.141548
lowerneck 11.7282 -2.13835 -4.37016
upperneck -11.9242 -2.82794 5.72448
head -5.36391 -1.5857 2.73322
rclavicle -1.3418e-015 -1.19271e-015
rhumerus 2.14362 21.1046 -90.059
rradius 133.947
rwrist 23.3506
rhand 33.7982 1.95269
rfingers 7.12502
rthumb 57.0854 -14.5619
lclavicle -1.3418e-015 -1.19271e-015
lhumerus 9.4711 -32.5528 88.0559
lradius 128.909
lwrist 21.5209
lhand -15.9245 27.7467
lfingers 7.12502
lthumb 10.273 57.4759
rfemur -6.3684 0.604052 21.7903
rtibia 13.9648
rfoot -12.1742 -6.45073
rtoes -21.9271
lfemur -8.54095 1.48578 -16.4381
ltibia 18.8077
lfoot -12.7931 4.16696
ltoes -19.5306
